<?xml version="1.0" encoding="utf-8"?>
<!-- Generator: Adobe Illustrator 27.1.0, SVG Export Plug-In . SVG Version: 6.00 Build 0)  -->
<svg version="1.1" id="Capa_1" xmlns="http://www.w3.org/2000/svg" xmlns:xlink="http://www.w3.org/1999/xlink" x="0px" y="0px"
	 viewBox="0 0 512 512" style="enable-background:new 0 0 512 512;" xml:space="preserve">
<style type="text/css">
	.st0{fill:#FFFFFF;}
</style>
<path class="st0" d="M255.5,357.6c-134.2,0-134.4-203.1,0-203.1C389.7,154.5,389.9,357.6,255.5,357.6z"/>
<path class="st0" d="M228.2,6.4L228.2,6.4C25.1,6.5,5.9,10.3,5.9,255.9c0,242.8,7,249.7,249.6,249.7c133.1,0,241.3,15.6,247.9-126.6
	C521.6-23,488.5,6,228.2,6.4z M255.5,412.5c-86.4,0-156.4-70-156.4-156.4s70-156.4,156.4-156.4s156.3,70.1,156.3,156.4
	S341.8,412.5,255.5,412.5z M418.1,130c-20.2,0-36.5-16.4-36.5-36.5s16.4-36.5,36.5-36.5c20.2,0,36.5,16.4,36.5,36.5
	S438.2,130,418.1,130z"/>
</svg>
